<svg height="512pt" viewBox="0 0 512.00001 512" width="512pt" xmlns="http://www.w3.org/2000/svg" xmlns:xlink="http://www.w3.org/1999/xlink"><linearGradient id="a"><stop offset="0" stop-color="#662d91"/><stop offset=".437" stop-color="#3873b3"/><stop offset="1" stop-color="#00c9dd"/></linearGradient><linearGradient id="b" gradientTransform="matrix(1.099725 0 0 -1.099725 0 504.202956)" gradientUnits="userSpaceOnUse" x1="32.3339" x2="447.8094" xlink:href="#a" y1="433.9066" y2="18.4311"/><linearGradient id="c" gradientTransform="matrix(1.099725 0 0 -1.099725 0 504.202956)" gradientUnits="userSpaceOnUse" x1="47.8529" x2="463.3284" xlink:href="#a" y1="449.4256" y2="33.9502"/><linearGradient id="d" gradientTransform="matrix(1.099725 0 0 -1.099725 0 504.202956)" gradientUnits="userSpaceOnUse" x1="40.0934" x2="455.5688" xlink:href="#a" y1="441.6661" y2="26.1907"/><linearGradient id="e" gradientTransform="matrix(1.099725 0 0 -1.099725 0 504.202956)" gradientUnits="userSpaceOnUse" x1="55.6124" x2="471.0879" xlink:href="#a" y1="457.1851" y2="41.7097"/><linearGradient id="f" gradientTransform="matrix(1.099725 0 0 -1.099725 0 504.202956)" gradientUnits="userSpaceOnUse" x1="16.8149" x2="432.2903" xlink:href="#a" y1="418.3876" y2="2.9121"/><linearGradient id="g" gradientTransform="matrix(1.099725 0 0 -1.099725 0 504.202956)" gradientUnits="userSpaceOnUse" x1="1.2958" x2="416.7713" xlink:href="#a" y1="402.8685" y2="-12.6069"/><linearGradient id="h" gradientTransform="matrix(1.099725 0 0 -1.099725 0 504.202956)" gradientUnits="userSpaceOnUse" x1="28.1884" x2="443.6638" xlink:href="#a" y1="429.7688" y2="14.2934"/><linearGradient id="i" gradientTransform="matrix(1.099725 0 0 -1.099725 0 504.202956)" gradientUnits="userSpaceOnUse" x1="28.4609" x2="443.9364" xlink:href="#a" y1="430.0336" y2="14.5582"/><path d="m375.46875 426.667969h136.53125v17.066406h-136.53125zm0 0" fill="url(#b)"/><path d="m375.46875 392.535156h136.53125v17.066406h-136.53125zm0 0" fill="url(#c)"/><path d="m0 34.132812h136.53125v17.066407h-136.53125zm0 0" fill="url(#d)"/><path d="m0 0h136.53125v17.066406h-136.53125zm0 0" fill="url(#e)"/><path d="m375.46875 460.800781h136.53125v17.066407h-136.53125zm0 0" fill="url(#f)"/><path d="m375.46875 494.933594h136.53125v17.066406h-136.53125zm0 0" fill="url(#g)"/><path d="m256 369.6875c73.957031.277344 144.765625-29.902344 195.789062-83.445312l15.171876-15.804688c3.261718-3.402344 3.144531-8.804688-.257813-12.066406l-22.921875-22c-39.730469-38.222656-90.1875-63.398438-144.621094-72.15625l4.632813-10.957032c1.128906.171876 2.265625.289063 3.40625.34375 10.285156-.046874 20.003906-4.726562 26.453125-12.742187l33.925781 15.417969c-.390625 1.929687-.605469 3.890625-.648437 5.855468 0 18.851563 15.28125 34.132813 34.132812 34.132813s34.136719-15.28125 34.136719-34.132813c.003906-8.386718-3.121094-16.472656-8.765625-22.671874l84.128906-126.191407-14.199219-9.472656-84.148437 126.226563c-3.574219-1.308594-7.34375-1.992188-11.152344-2.023438-10.285156.042969-20.003906 4.722656-26.453125 12.738281l-33.929687-15.417969c.390624-1.929687.609374-3.886718.648437-5.855468.117187-18.851563-15.066406-34.226563-33.917969-34.34375-18.851562-.117188-34.230468 15.066406-34.347656 33.917968-.070312 11.285157 5.441406 21.871094 14.71875 28.289063l-6.1875 14.609375c-78.582031-7.488281-156.515625 19.695312-213.390625 74.4375l-22.910156 21.996094c-3.40625 3.261718-3.519531 8.664062-.257813 12.066406l15.171875 15.804688c36.796875 38.574218 84.234375 65.339843 136.277344 76.894531l-5.34375 12.605469c-9.675781-1.109376-19.351563 2.09375-26.453125 8.761718-1.972656 1.839844-3.726562 3.910156-5.214844 6.160156l-48.886718-20.949218c.085937-.929688.300781-1.84375.300781-2.78125.074219-18.851563-15.148438-34.195313-34-34.269532-18.851563-.074218-34.191407 15.148438-34.265625 34-.046875 11.230469 5.4375 21.765626 14.667968 28.171876l-56.316406 104.585937 15.035156 8.089844 57.4375-106.667969c1.113282.132812 2.234376.207031 3.355469.222656 11.359375 0 21.960938-5.710937 28.210938-15.199218l48.886719 20.949218c-.085938.933594-.300782 1.84375-.300782 2.785156-.117187 18.851563 15.070313 34.226563 33.921875 34.34375 18.851563.117188 34.226563-15.066406 34.34375-33.917968.070313-11.285156-5.4375-21.871094-14.71875-28.289063l6.484375-15.359375c14.019532 2.1875 28.183594 3.296875 42.371094 3.308594zm160.699219-234.109375-2.695313 4.574219 2.6875-4.574219zm-7.039063 11.945313c5.230469 3.007812 8.460938 8.574218 8.472656 14.609374 0 9.425782-7.640624 17.066407-17.066406 17.066407-9.425781 0-17.066406-7.640625-17.066406-17.066407.007812-2.429687.546875-4.832031 1.578125-7.03125 3.945313-8.5625 14.082031-12.304687 22.644531-8.359374.488282.226562.96875.476562 1.4375.746093zm-102.460937-45.125c9.425781 0 17.066406 7.640624 17.066406 17.066406-.007813 2.433594-.546875 4.832031-1.578125 7.035156-2.753906 6.085938-8.804688 10.007812-15.488281 10.03125-1.933594-.027344-3.851563-.390625-5.664063-1.074219-8.867187-3.105469-13.535156-12.808593-10.429687-21.671875 2.390625-6.835937 8.851562-11.402344 16.09375-11.386718zm-218.921875 277.0625c-3.125 2.894531-7.21875 4.515624-11.476563 4.539062-1.390625-.019531-2.773437-.214844-4.113281-.582031-9.148438-2.265625-14.730469-11.519531-12.464844-20.667969 2.269532-9.148438 11.523438-14.730469 20.671875-12.460938 9.148438 2.265626 14.726563 11.519532 12.460938 20.667969-.8125 3.277344-2.578125 6.238281-5.070313 8.511719zm99.457031 47.207031c-9.425781 0-17.066406-7.640625-17.066406-17.066407 0-4.78125 2.03125-9.335937 5.585937-12.527343 3.125-2.898438 7.21875-4.515625 11.480469-4.539063 1.933594.027344 3.851563.390625 5.664063 1.074219 8.863281 3.105469 13.535156 12.808594 10.429687 21.671875-2.390625 6.835938-8.851563 11.40625-16.09375 11.386719zm145.066406-170.667969c0 42.414062-34.386719 76.800781-76.800781 76.800781-42.417969 0-76.800781-34.386719-76.800781-76.800781 0-42.417969 34.382812-76.800781 76.800781-76.800781 42.394531.046875 76.753906 34.40625 76.800781 76.800781zm-269.535156 8.78125 16.75-16.058594c31.917969-30.683594 71.300781-52.488281 114.246094-63.25-39.050781 34.097656-43.066407 93.394532-8.96875 132.445313 34.097656 39.046875 93.394531 43.0625 132.445312 8.964843 39.050781-34.097656 43.0625-93.394531 8.96875-132.445312-2.785156-3.1875-5.78125-6.183594-8.96875-8.964844 42.941407 10.765625 82.320313 32.570313 114.234375 63.25l16.761719 16.058594-9.269531 9.640625c-97.28125 101.328125-258.28125 104.605469-359.609375 7.324219-2.488281-2.390625-4.929688-4.832032-7.320313-7.324219zm0 0" fill="url(#h)"/><path d="m256 307.199219c28.277344 0 51.199219-22.921875 51.199219-51.199219s-22.921875-51.199219-51.199219-51.199219-51.199219 22.921875-51.199219 51.199219c.027344 28.265625 22.933594 51.171875 51.199219 51.199219zm0-85.332031c18.851562 0 34.132812 15.28125 34.132812 34.132812s-15.28125 34.132812-34.132812 34.132812-34.132812-15.28125-34.132812-34.132812 15.28125-34.132812 34.132812-34.132812zm0 0" fill="url(#i)"/></svg>