<?xml version="1.0" standalone="no"?>
<!DOCTYPE svg PUBLIC "-//W3C//DTD SVG 20010904//EN"
 "http://www.w3.org/TR/2001/REC-SVG-20010904/DTD/svg10.dtd">
<svg version="1.0" xmlns="http://www.w3.org/2000/svg"
 width="520.000000pt" height="147.000000pt" viewBox="0 0 520.000000 147.000000"
 preserveAspectRatio="xMidYMid meet">
<g transform="translate(0.000000,147.000000) scale(0.100000,-0.100000)"
fill="#000000" stroke="none">
<path d="M735 1363 c-252 -35 -467 -221 -541 -468 -13 -43 -18 -92 -18 -175 0
-97 5 -128 28 -197 33 -101 106 -214 184 -283 64 -58 188 -122 277 -145 77
-20 230 -19 309 1 182 46 361 195 431 360 42 98 50 138 50 269 0 116 -3 138
-27 203 -37 104 -83 175 -160 253 -134 135 -348 208 -533 182z m223 -58 c205
-48 393 -234 440 -435 66 -276 -62 -557 -309 -679 -187 -92 -363 -92 -545 -1
-202 102 -324 301 -324 527 0 54 7 121 16 157 53 204 233 382 436 432 73 17
210 17 286 -1z"/>
<path d="M792 1190 c-36 -22 -72 -74 -72 -105 0 -12 -5 -26 -12 -33 -9 -9 -9
-12 -1 -12 7 0 15 -9 18 -21 9 -27 62 -59 98 -59 19 0 38 10 55 29 44 47 54
61 42 61 -5 0 -10 8 -10 19 0 10 -10 31 -21 46 -28 35 -12 48 49 41 51 -7 48
5 -8 34 -50 25 -96 25 -138 0z"/>
<path d="M734 817 c-60 -55 -57 -152 5 -196 87 -62 207 -2 205 103 -2 76 -54
126 -134 126 -32 0 -48 -7 -76 -33z"/>
<path d="M1141 679 c-1 -9 -17 -21 -39 -27 -72 -22 -101 -78 -76 -142 16 -40
34 -50 92 -50 40 0 42 -20 6 -67 -14 -18 -22 -33 -19 -33 14 0 82 40 98 58 46
51 38 143 -18 202 -18 19 -35 44 -38 55 -3 13 -5 15 -6 4z"/>
<path d="M481 663 c-1 -7 -12 -28 -25 -48 -14 -20 -27 -41 -29 -48 -7 -19 -36
14 -52 59 l-13 39 -7 -36 c-15 -79 35 -162 109 -179 32 -7 52 -5 116 11 22 6
40 47 40 94 0 36 -5 48 -31 69 -19 17 -43 26 -64 26 -18 0 -36 6 -38 13 -4 9
-6 9 -6 0z"/>
<path d="M2090 795 l0 -285 35 0 35 0 0 149 c0 115 3 151 14 160 9 7 42 11 88
9 l73 -3 3 -157 3 -158 34 0 35 0 0 169 0 169 -32 27 c-29 24 -37 26 -107 23
-42 -2 -84 -8 -93 -12 -17 -7 -18 0 -18 93 l0 101 -35 0 -35 0 0 -285z"/>
<path d="M1688 1035 c-40 -23 -48 -45 -48 -139 0 -75 3 -88 24 -113 23 -27 28
-28 143 -33 l118 -5 0 -80 0 -80 -107 -3 c-103 -3 -108 -2 -108 18 0 17 -6 20
-40 20 -33 0 -40 -3 -40 -20 0 -11 13 -34 29 -52 l29 -33 130 0 c125 0 132 1
157 25 25 23 26 27 23 129 l-3 105 -34 23 c-30 20 -46 23 -137 23 l-104 0 0
80 0 80 96 0 c87 0 96 -2 101 -20 4 -16 14 -20 45 -20 39 0 40 1 33 28 -3 15
-17 38 -31 52 -23 23 -32 25 -137 28 -85 1 -118 -2 -139 -13z"/>
<path d="M2220 1010 l0 -30 460 0 460 0 0 30 0 30 -460 0 -460 0 0 -30z"/>
<path d="M3385 1026 c-11 -8 -16 -19 -12 -30 6 -15 72 -16 792 -16 720 0 786
1 792 16 17 44 11 44 -792 44 -625 0 -765 -2 -780 -14z"/>
<path d="M2523 881 c-22 -19 -22 -19 -2 -37 17 -15 35 -17 119 -15 l100 3 0
-44 0 -43 -76 3 c-90 4 -112 0 -142 -28 -19 -18 -22 -31 -22 -89 0 -60 3 -70
26 -92 21 -20 38 -24 100 -27 46 -3 86 1 105 8 23 10 33 10 42 1 6 -6 21 -11
34 -11 20 0 23 5 23 34 0 19 -4 38 -10 41 -6 4 -10 60 -10 135 l0 128 -31 26
c-29 24 -37 26 -132 26 -84 -1 -106 -4 -124 -19z m217 -240 c0 -53 -15 -63
-97 -59 l-68 3 -3 48 -3 47 85 0 86 0 0 -39z"/>
<path d="M2910 867 c0 -20 5 -39 10 -42 6 -4 10 -68 10 -161 l0 -154 35 0 35
0 0 155 0 155 26 6 c14 4 43 4 64 1 31 -4 43 -1 59 17 l21 23 -33 18 c-25 13
-45 16 -82 11 -66 -8 -74 -8 -112 0 -32 6 -33 6 -33 -29z"/>
<path d="M3222 708 l3 -193 35 0 35 0 0 190 0 190 -38 3 -37 3 2 -193z"/>
<path d="M3387 718 c3 -101 6 -189 9 -196 2 -8 16 -12 36 -10 l33 3 3 150 c2
104 6 152 15 157 7 4 45 8 84 8 l72 0 3 -157 3 -158 35 0 35 0 3 150 c3 165
-4 197 -49 220 -34 18 -157 20 -194 3 -19 -9 -28 -9 -37 0 -7 7 -22 12 -33 12
-22 0 -22 -1 -18 -182z"/>
<path d="M3837 884 c-40 -21 -47 -50 -47 -179 0 -130 9 -157 57 -180 36 -17
149 -18 186 -1 15 7 17 1 17 -63 l0 -71 -94 0 c-115 0 -126 -4 -126 -41 l0
-29 118 0 c108 0 119 2 147 24 l30 24 6 239 c4 131 9 249 10 263 5 29 -21 38
-56 20 -17 -9 -28 -9 -43 -1 -31 17 -172 13 -205 -5z m197 -60 c13 -5 16 -25
16 -113 0 -70 -4 -111 -12 -119 -7 -7 -43 -12 -90 -12 l-78 0 0 125 0 125 74
0 c41 0 81 -3 90 -6z"/>
<path d="M4259 881 c-23 -19 -23 -21 -7 -37 15 -15 33 -17 118 -15 l100 2 0
-43 0 -43 -88 3 c-84 3 -91 2 -120 -23 -30 -25 -32 -31 -32 -94 0 -60 3 -70
26 -92 22 -21 37 -24 107 -27 60 -3 87 0 101 11 17 12 23 12 46 -1 36 -21 65
-10 55 21 -4 12 -11 87 -15 167 -4 80 -8 146 -9 148 0 1 -16 11 -33 22 -48 29
-215 29 -249 1z m211 -246 c0 -53 -11 -58 -105 -53 -60 3 -60 3 -63 36 -6 58
-1 62 88 62 l80 0 0 -45z"/>
<path d="M4640 867 c0 -20 5 -39 10 -42 6 -4 10 -68 10 -161 l0 -154 35 0 35
0 0 149 c0 115 3 151 14 160 9 7 42 11 88 9 l73 -3 3 -157 3 -158 34 0 35 0 0
169 0 169 -32 27 c-33 28 -38 28 -228 15 -8 0 -30 2 -47 6 -32 6 -33 6 -33
-29z"/>
<path d="M1660 350 l0 -30 1045 0 1045 0 0 30 0 30 -1045 0 -1045 0 0 -30z"/>
</g>
</svg>
